<?xml version="1.0" encoding="UTF-8"?>
<svg version="1.1" xmlns="http://www.w3.org/2000/svg" width="512" height="512">
<path d="M0 0 C1.64152503 -0.00668677 1.64152503 -0.00668677 3.31621218 -0.01350862 C4.51813314 -0.01332426 5.7200541 -0.01313989 6.95839691 -0.01294994 C8.87417644 -0.01846498 8.87417644 -0.01846498 10.82865858 -0.02409142 C14.37654957 -0.03410284 17.92442364 -0.03782684 21.47232676 -0.04048073 C25.29802321 -0.04438641 29.12370631 -0.05396467 32.94939423 -0.0626936 C42.19072517 -0.08245207 51.43205719 -0.0925241 60.67340398 -0.10142139 C65.02722701 -0.10580589 69.38104883 -0.11117234 73.73487091 -0.11641026 C88.21184537 -0.13342304 102.68881908 -0.14791616 117.165802 -0.155159 C120.92230989 -0.15706884 124.67881776 -0.15898918 128.43532562 -0.16094494 C129.83579058 -0.16167055 129.83579058 -0.16167055 131.26454777 -0.16241082 C146.38143 -0.17070715 161.498233 -0.19603715 176.61508065 -0.22852562 C192.14163721 -0.26162199 207.66815353 -0.27961015 223.19474554 -0.28280324 C231.90969855 -0.28496611 240.62453607 -0.29368187 249.33945465 -0.31926441 C256.76328313 -0.34100678 264.18696806 -0.34900454 271.61082476 -0.33929763 C275.39564945 -0.33476293 279.1801782 -0.33659022 282.96496201 -0.35605907 C287.07707519 -0.37702804 291.18853647 -0.36667329 295.30068207 -0.35352612 C296.48475726 -0.36449536 297.66883245 -0.37546461 298.8887887 -0.38676625 C311.5818735 -0.28910052 322.44019522 3.45848418 331.79372406 12.13422108 C338.63269654 19.2794162 343.72714911 28.41288882 343.78464508 38.48946095 C343.79537804 39.78647182 343.79537804 39.78647182 343.80632782 41.10968494 C343.80901672 42.05049915 343.81170563 42.99131336 343.81447601 43.96063709 C343.82104721 44.95792332 343.82761841 45.95520954 343.83438873 46.98271656 C343.85410403 50.28452095 343.86578225 53.58627982 343.87575531 56.88812733 C343.87983084 58.01811586 343.88390636 59.1481044 343.88810539 60.31233501 C343.90896149 66.29666301 343.92326359 72.28096812 343.93264008 78.26532459 C343.9436859 84.4298053 343.97806643 90.59392321 344.01781178 96.75827599 C344.04403107 101.51198948 344.05233679 106.26561735 344.05592155 111.01939678 C344.06077602 113.29064787 344.07235725 115.56189543 344.09095955 117.83307552 C344.11545695 121.02301857 344.11436604 124.21203392 344.10744476 127.40204334 C344.12665985 128.79201023 344.12665985 128.79201023 344.14626312 130.21005726 C344.06421705 140.66001387 340.49986419 149.32472141 333.63747406 157.13422108 C333.13602875 157.74008045 332.63458344 158.34593983 332.11794281 158.97015858 C326.6196448 165.09721573 318.73277318 169.50616697 310.63747406 171.13422108 C308.83001151 171.22648756 307.01949818 171.26506512 305.20968533 171.26844215 C303.54633488 171.27512892 303.54633488 171.27512892 301.84938139 171.28195077 C300.63121451 171.28176641 299.41304764 171.28158205 298.15796661 171.2813921 C296.86374049 171.28506879 295.56951436 171.28874547 294.23606926 171.29253358 C290.64064138 171.30254559 287.0452302 171.30626909 283.44979036 171.30892289 C279.5729879 171.31282835 275.69619863 171.32240657 271.8194046 171.33113575 C262.4549781 171.35089406 253.09055053 171.3609659 243.7261084 171.36986354 C239.31487511 171.37424777 234.90364301 171.37961426 230.49241066 171.38485241 C215.82585239 171.4018646 201.15929486 171.41635816 186.49272823 171.42360115 C182.68705431 171.42551101 178.88138039 171.42743135 175.07570648 171.42938709 C173.65690437 171.4301127 173.65690437 171.4301127 172.20943958 171.43085297 C156.89141998 171.43915098 141.57347853 171.46448406 126.25549304 171.49696777 C110.52440909 171.53005516 94.79336483 171.54805146 79.06224591 171.55124539 C70.23163034 171.55340901 61.40112872 171.56213588 52.5705471 171.58770657 C45.04897441 171.60943657 37.52754334 171.61745272 30.00594281 171.60773978 C26.17061187 171.60320162 22.33557298 171.60505274 18.50028229 171.62450123 C14.33527284 171.64543856 10.17090822 171.63512662 6.005867 171.62196827 C4.80331518 171.63293752 3.60076336 171.64390676 2.36177057 171.65520841 C-8.9327093 171.56922488 -17.852738 168.6119709 -26.36252594 161.13422108 C-26.96838531 160.63277576 -27.57424469 160.13133045 -28.19846344 159.61468983 C-34.64058576 153.83365866 -39.93113178 144.8376874 -40.49674702 136.04854965 C-40.5010205 135.29959207 -40.50529398 134.55063448 -40.50969696 133.77898121 C-40.51685226 132.91430729 -40.52400757 132.04963337 -40.5313797 131.15875721 C-40.5340686 130.217943 -40.53675751 129.27712879 -40.53952789 128.30780506 C-40.54609909 127.31051884 -40.55267029 126.31323261 -40.55944061 125.28572559 C-40.57915591 121.98392121 -40.59083413 118.68216234 -40.60080719 115.38031483 C-40.60488272 114.25032629 -40.60895824 113.12033775 -40.61315727 111.95610714 C-40.63401337 105.97177915 -40.64831547 99.98747403 -40.65769196 94.00311756 C-40.66873778 87.83863685 -40.70311831 81.67451894 -40.74286366 75.51016617 C-40.76908295 70.75645268 -40.77738867 66.0028248 -40.78097343 61.24904537 C-40.7858279 58.97779428 -40.79740913 56.70654673 -40.81601143 54.43536663 C-40.84050883 51.24542359 -40.83941792 48.05640824 -40.83249664 44.86639881 C-40.8453067 43.93975422 -40.85811676 43.01310963 -40.871315 42.0583849 C-40.7804241 30.48188897 -36.12473787 20.4692175 -28.39768219 11.97406483 C-20.73650197 4.56225394 -10.70806903 0.02024894 0 0 Z M2.63747406 43.13422108 C2.63747406 71.18422108 2.63747406 99.23422108 2.63747406 128.13422108 C100.97747406 128.13422108 199.31747406 128.13422108 300.63747406 128.13422108 C300.63747406 100.08422108 300.63747406 72.03422108 300.63747406 43.13422108 C202.29747406 43.13422108 103.95747406 43.13422108 2.63747406 43.13422108 Z " fill="#000000" transform="translate(104.3625259399414,276.86577892303467)"/>
<path d="M0 0 C1.1089003 -0.00445784 2.2178006 -0.00891569 3.36030394 -0.01350862 C4.57847081 -0.01332426 5.79663769 -0.01313989 7.05171871 -0.01294994 C8.9930579 -0.01846498 8.9930579 -0.01846498 10.97361606 -0.02409142 C14.56904394 -0.03410344 18.16445513 -0.03782693 21.75989497 -0.04048073 C25.63669742 -0.0443862 29.51348669 -0.05396442 33.39028072 -0.0626936 C42.75470722 -0.08245191 52.11913479 -0.09252374 61.48357692 -0.10142139 C65.89481022 -0.10580561 70.30604232 -0.1111721 74.71727467 -0.11641026 C89.38383294 -0.13342245 104.05039047 -0.14791601 118.71695709 -0.155159 C122.52263102 -0.15706885 126.32830494 -0.15898919 130.13397884 -0.16094494 C131.55278096 -0.16167055 131.55278096 -0.16167055 133.00024574 -0.16241082 C148.31826535 -0.17070883 163.6362068 -0.19604191 178.95419229 -0.22852562 C194.68527624 -0.261613 210.41632049 -0.27960931 226.14743942 -0.28280324 C234.97805498 -0.28496686 243.8085566 -0.29369373 252.63913822 -0.31926441 C260.16071091 -0.34099442 267.68214199 -0.34901056 275.20374251 -0.33929763 C279.03907345 -0.33475947 282.87411234 -0.33661059 286.70940304 -0.35605907 C290.87441249 -0.37699641 295.03877711 -0.36668447 299.20381832 -0.35352612 C301.00764606 -0.36997998 301.00764606 -0.36997998 302.84791476 -0.38676625 C314.14239462 -0.30078273 323.06242333 2.65647125 331.57221127 10.13422108 C332.17807064 10.63566639 332.78393002 11.1371117 333.40814877 11.65375233 C339.85027109 17.43478349 345.14081711 26.43075475 345.70643234 35.2198925 C345.71284256 36.34332888 345.71284256 36.34332888 345.71938229 37.48946095 C345.73011524 38.78647182 345.73011524 38.78647182 345.74106503 40.10968494 C345.74375393 41.05049915 345.74644283 41.99131336 345.74921322 42.96063709 C345.75578442 43.95792332 345.76235561 44.95520954 345.76912594 45.98271656 C345.78884123 49.28452095 345.80051946 52.58627982 345.81049252 55.88812733 C345.81456804 57.01811586 345.81864357 58.1481044 345.8228426 59.31233501 C345.8436987 65.29666301 345.8580008 71.28096812 345.86737728 77.26532459 C345.8784231 83.4298053 345.91280364 89.59392321 345.95254898 95.75827599 C345.97876828 100.51198948 345.987074 105.26561735 345.99065876 110.01939678 C345.99551323 112.29064787 346.00709445 114.56189543 346.02569675 116.83307552 C346.05019416 120.02301857 346.04910325 123.21203392 346.04218197 126.40204334 C346.06139706 127.79201023 346.06139706 127.79201023 346.08100033 129.21005726 C345.99010942 140.78655319 341.3344232 150.79922466 333.60736752 159.29437733 C325.9461873 166.70618821 315.91775436 171.24819321 305.20968533 171.26844215 C303.5681603 171.27512892 303.5681603 171.27512892 301.89347315 171.28195077 C300.69155219 171.28176641 299.48963122 171.28158205 298.25128841 171.2813921 C296.33550889 171.28690713 296.33550889 171.28690713 294.38102674 171.29253358 C290.83313575 171.30254499 287.28526168 171.306269 283.73735857 171.30892289 C279.91166211 171.31282857 276.08597902 171.32240683 272.2602911 171.33113575 C263.01896016 171.35089422 253.77762813 171.36096626 244.53628135 171.36986354 C240.18245831 171.37424805 235.82863649 171.37961449 231.47481441 171.38485241 C216.99783995 171.40186519 202.52086625 171.41635831 188.04388332 171.42360115 C184.28737544 171.425511 180.53086756 171.42743133 176.7743597 171.42938709 C175.8407164 171.42987083 174.90707309 171.43035457 173.94513756 171.43085297 C158.82825533 171.43914931 143.71145232 171.4644793 128.59460467 171.49696777 C113.06804812 171.53006415 97.54153179 171.5480523 82.01493979 171.55124539 C73.29998678 171.55340826 64.58514926 171.56212403 55.87023067 171.58770657 C48.4464022 171.60944894 41.02271727 171.61744669 33.59886056 171.60773978 C29.81403587 171.60320509 26.02950713 171.60503237 22.24472332 171.62450123 C18.13261013 171.6454702 14.02114885 171.63511544 9.90900326 171.62196827 C8.72492807 171.63293752 7.54085288 171.64390676 6.32089663 171.65520841 C-6.37218817 171.55754267 -17.2305099 167.80995797 -26.58403873 159.13422108 C-33.42301121 151.98902595 -38.51746378 142.85555333 -38.57495975 132.77898121 C-38.58211506 131.91430729 -38.58927036 131.04963337 -38.59664249 130.15875721 C-38.5993314 129.217943 -38.6020203 128.27712879 -38.60479069 127.30780506 C-38.61136189 126.31051884 -38.61793308 125.31323261 -38.62470341 124.28572559 C-38.6444187 120.98392121 -38.65609693 117.68216234 -38.66606998 114.38031483 C-38.67014551 113.25032629 -38.67422104 112.12033775 -38.67842007 110.95610714 C-38.69927617 104.97177915 -38.71357827 98.98747403 -38.72295475 93.00311756 C-38.73400057 86.83863685 -38.7683811 80.67451894 -38.80812645 74.51016617 C-38.83434575 69.75645268 -38.84265147 65.0028248 -38.84623623 60.24904537 C-38.8510907 57.97779428 -38.86267192 55.70654673 -38.88127422 53.43536663 C-38.90577163 50.24542359 -38.90468072 47.05640824 -38.89775944 43.86639881 C-38.9105695 42.93975422 -38.92337955 42.01310963 -38.9365778 41.0583849 C-38.85453172 30.60842828 -35.29017887 21.94372074 -28.42778873 14.13422108 C-27.92634342 13.5283617 -27.42489811 12.92250233 -26.90825748 12.29828358 C-20.05944917 4.6662782 -10.22812657 0.01908525 0 0 Z M4.57221127 43.13422108 C4.57221127 71.18422108 4.57221127 99.23422108 4.57221127 128.13422108 C102.91221127 128.13422108 201.25221127 128.13422108 302.57221127 128.13422108 C302.57221127 100.08422108 302.57221127 72.03422108 302.57221127 43.13422108 C204.23221127 43.13422108 105.89221127 43.13422108 4.57221127 43.13422108 Z " fill="#000000" transform="translate(102.42778873443604,63.86577892303467)"/>
</svg>
